<?xml version="1.0" encoding="UTF-8"?>
<svg id="Layer_2" data-name="Layer 2" xmlns="http://www.w3.org/2000/svg" viewBox="0 0 920.3 121.79">
  <defs>
    <style>
      .cls-1 {
        fill: #231f20;
      }
    </style>
  </defs>
  <g id="Layer_1-2" data-name="Layer 1">
    <g>
      <path class="cls-1" d="m36.57,11.92h27.17l36.35,108.39h-21.69l-8.07-25.02H27.76l-7.85,25.02H0L36.57,11.92Zm29.1,68.33l-16.51-51.38-16.58,51.38h33.09Z"/>
      <path class="cls-1" d="m113.95,11.92h36.5c35.39,0,56.93,18.44,56.93,54.49s-22.65,53.9-57.08,53.9h-36.35V11.92Zm35.83,92.03c25.25,0,35.69-14.66,35.69-38.42s-11.03-37.24-35.98-37.24h-14.51v75.66h14.81Z"/>
      <path class="cls-1" d="m249.07,11.92h27.17l36.35,108.39h-21.69l-8.07-25.02h-42.57l-7.85,25.02h-19.92L249.07,11.92Zm29.1,68.33l-16.51-51.38-16.58,51.38h33.09Z"/>
      <path class="cls-1" d="m377.74,107.87c-4.96,9.62-15.18,13.92-26.13,13.92-18.21,0-27.84-11.99-27.84-29.98v-50.79h18.95v48.49c0,10.81,4.96,17.47,15.99,17.47,11.85,0,19.03-7.63,19.03-18.95v-47.01h18.88v79.29h-18.88v-12.44Z"/>
      <path class="cls-1" d="m475.33,106.98c-5.26,9.18-17.1,14.81-27.47,14.81-24.28,0-35.61-18.8-35.61-41.09s12.88-41.39,36.2-41.39c10.96,0,21.32,4.37,26.88,13.92V5.11h18.88v115.2h-18.88v-13.33Zm.44-27.02c0-14.36-6.37-25.84-22.06-25.84-16.58,0-22.14,12.88-22.14,27.39,0,13.33,6.52,25.47,21.99,25.47s22.21-12.44,22.21-27.02Z"/>
      <path class="cls-1" d="m525.08,7.48c6.15,0,11.03,4.52,11.03,10.81s-4.74,10.74-10.96,10.74-11.33-4.59-11.33-10.81,5.11-10.74,11.25-10.74Zm-9.55,33.69h18.95v79.14h-18.95V41.16Z"/>
      <path class="cls-1" d="m596.08,119.72c-4.07,1.18-8.29,1.92-13.03,1.92-15.1,0-24.06-7.85-24.06-23.62v-43.09h-10.66v-13.92h10.66v-16.36l18.95-8.22v24.58h17.47v13.92h-17.47v41.39c0,6.22,2.67,10.07,9.62,10.07,2.67,0,5.63-.59,8.51-1.55v14.88Z"/>
      <path class="cls-1" d="m648.06,11.92h33.83c20.95,0,37.91,9.25,37.91,32.87,0,28.8-25.17,31.54-49.16,31.54l-9.4-.15v44.12h-13.18V11.92Zm34.72,53.82c15.03,0,23.84-6.44,23.84-21.91s-9.25-21.32-23.84-21.32h-21.54v43.24h21.54Z"/>
      <path class="cls-1" d="m738.24,5.63l12.73-5.63v120.31h-12.73V5.63Z"/>
      <path class="cls-1" d="m829.68,107.72c-4.74,9.7-13.99,13.92-24.43,13.92-19.25,0-29.84-11.33-29.84-30.43v-50.2h12.59v49.6c0,13.55,7.26,20.14,20.58,20.14s21.1-8.74,21.1-21.69v-48.05h12.59v79.29h-12.59v-12.59Z"/>
      <path class="cls-1" d="m870.4,96.76c2.96,9.11,10.59,14.36,20.14,14.36,8.66,0,17.77-2.96,17.77-12.44s-9.25-11.77-19.32-14.21c-12.07-2.89-25.32-6.07-25.32-22.51,0-13.99,13.25-22.36,26.43-22.36,12.07,0,22.28,6.96,28.06,18.07l-9.7,4.29c-3.55-7.63-10.81-11.85-18.8-11.85-7.11,0-14.29,3.33-14.29,11.48,0,9.18,9.11,11.18,19.17,13.33,12.22,2.59,25.76,5.4,25.76,22.06s-14.21,24.65-29.17,24.65-25.84-7.11-30.43-20.66l9.7-4.22Z"/>
    </g>
  </g>
</svg>